<svg xmlns="http://www.w3.org/2000/svg" xmlns:xlink="http://www.w3.org/1999/xlink" version="1.1" width="256" height="256" viewBox="0 0 256 256" xml:space="preserve">
<g style="stroke: none; stroke-width: 0; stroke-dasharray: none; stroke-linecap: butt; stroke-linejoin: miter; stroke-miterlimit: 10; fill: none; fill-rule: nonzero; opacity: 1;" transform="translate(1.4065934065934016 1.4065934065934016) scale(2.81 2.81)">
	<path d="M 40.045 37.924 c -1.034 -0.703 -2.261 -0.703 -3.452 -0.703 H 32.27 v 14.008 h 1.805 v -5.986 h 2.55 c 0.852 0.025 1.702 -0.097 2.513 -0.362 l 0.037 0 c 1.55 -0.517 2.579 -1.987 2.534 -3.62 C 41.76 39.937 41.133 38.679 40.045 37.924 z M 35.99 43.826 H 34.09 v -5.215 h 2.419 l 0.005 0.005 c 1.784 0 3.295 0.404 3.295 2.502 C 39.809 43.521 37.925 43.826 35.99 43.826 z" style="stroke: none; stroke-width: 1; stroke-dasharray: none; stroke-linecap: butt; stroke-linejoin: miter; stroke-miterlimit: 10; fill: rgb(219,0,17); fill-rule: nonzero; opacity: 1;" transform=" matrix(1 0 0 1 0 0) " stroke-linecap="round"/>
	<polygon points="71.14,49.08 66.59,37.24 63.72,37.24 63.72,51.24 65.35,51.24 65.35,38.61 70.24,51.25 71.89,51.25 76.8,38.66 76.8,51.25 78.48,51.26 78.48,37.25 75.6,37.25 " style="stroke: none; stroke-width: 1; stroke-dasharray: none; stroke-linecap: butt; stroke-linejoin: miter; stroke-miterlimit: 10; fill: rgb(219,0,17); fill-rule: nonzero; opacity: 1;" transform="  matrix(1 0 0 1 0 0) "/>
	<path d="M 85.834 50.31 c -1.957 0 -2.912 -1.647 -2.912 -3.452 v -0.194 l 0 -0.01 H 90 c 0.005 -2.849 -0.913 -5.393 -4.155 -5.393 c -3.148 0 -4.606 2.34 -4.611 5.246 c -0.005 2.906 1.453 4.947 4.465 4.947 c 2.209 0 3.856 -1.065 4.244 -3.368 h -1.611 C 88.236 49.38 87.131 50.365 85.834 50.31 z M 85.787 42.467 v -0.01 c 1.768 0.005 2.55 1.495 2.55 3.106 h -5.372 C 83.117 43.936 84.004 42.467 85.787 42.467 z" style="stroke: none; stroke-width: 1; stroke-dasharray: none; stroke-linecap: butt; stroke-linejoin: miter; stroke-miterlimit: 10; fill: rgb(219,0,17); fill-rule: nonzero; opacity: 1;" transform=" matrix(1 0 0 1 0 0) " stroke-linecap="round"/>
	<path d="M 13.368 37.011 l 0.021 -0.005 c -2.117 0.023 -3.816 1.755 -3.798 3.872 c 0 1.049 0 3.583 0 3.583 c -0.003 0.168 0.131 0.307 0.299 0.31 c 0 0 0 0 0 0 h 3.478 c 2.143 -0.079 3.816 -1.88 3.737 -4.022 C 17.03 38.716 15.4 37.086 13.368 37.011 z M 13.378 43.941 l -0.01 0.005 h -2.985 c 0 -0.666 0 -2.303 0 -3.069 c 0.035 -1.657 1.406 -2.972 3.063 -2.937 c 1.657 0.035 2.972 1.406 2.937 3.063 C 16.349 42.637 15.013 43.944 13.378 43.941 z" style="stroke: none; stroke-width: 1; stroke-dasharray: none; stroke-linecap: butt; stroke-linejoin: miter; stroke-miterlimit: 10; fill: rgb(219,0,17); fill-rule: nonzero; opacity: 1;" transform=" matrix(1 0 0 1 0 0) " stroke-linecap="round"/>
	<polygon points="56.85,49.48 53.81,41.48 51.89,41.48 56,51.25 54.43,54.92 56.16,54.92 61.6,41.48 59.89,41.48 " style="stroke: none; stroke-width: 1; stroke-dasharray: none; stroke-linecap: butt; stroke-linejoin: miter; stroke-miterlimit: 10; fill: rgb(219,0,17); fill-rule: nonzero; opacity: 1;" transform="  matrix(1 0 0 1 0 0) "/>
	<path d="M 50.359 44.77 c 0 -2.555 -1.196 -3.51 -3.672 -3.51 c -1.826 -0.005 -3.531 0.693 -3.63 2.823 h 1.647 c 0.115 -1.28 0.824 -1.721 2.015 -1.721 c 1.6 0 2.125 0.855 2.125 2.366 v 0.582 c -0.318 -0.028 -0.638 -0.042 -0.96 -0.042 c -2.361 0 -5.551 0.341 -5.551 3.268 c -0.005 1.994 1.584 2.912 3.389 2.912 c 1.401 0 2.476 -0.393 3.284 -1.574 c 0.029 0.461 0.087 0.92 0.173 1.375 l 0.011 -0.005 h 1.474 c -0.217 -0.941 -0.319 -1.904 -0.304 -2.87 V 44.77 z M 46.146 50.321 c -1.112 -0.005 -2.125 -0.645 -2.125 -1.847 c 0.005 -1.999 2.461 -2.167 3.956 -2.167 l -0.026 -0.01 c 0.296 0 0.592 0.018 0.887 0.052 C 48.832 48.327 48.581 50.321 46.146 50.321 z" style="stroke: none; stroke-width: 1; stroke-dasharray: none; stroke-linecap: butt; stroke-linejoin: miter; stroke-miterlimit: 10; fill: rgb(219,0,17); fill-rule: nonzero; opacity: 1;" transform=" matrix(1 0 0 1 0 0) " stroke-linecap="round"/>
	<path d="M 13.252 33.842 l 0.042 -0.016 c -3.898 -0.006 -7.065 3.143 -7.082 7.041 c 0 1.91 0 6.631 0 6.679 c 0 0.221 0.178 0.401 0.399 0.404 c 0.047 0 4.916 0 6.642 0 c 3.896 0 7.054 -3.158 7.054 -7.054 S 17.148 33.842 13.252 33.842 z M 13.346 47.126 c -0.024 0 -0.049 0 -0.073 0 l -0.021 0.016 c -1.437 0 -5.036 0 -6.243 0 c 0 -1.191 0 -4.69 0 -6.269 c -0.023 -3.477 2.777 -6.314 6.254 -6.337 c 3.477 -0.023 6.314 2.777 6.337 6.254 S 16.823 47.102 13.346 47.126 z" style="stroke: none; stroke-width: 1; stroke-dasharray: none; stroke-linecap: butt; stroke-linejoin: miter; stroke-miterlimit: 10; fill: rgb(219,0,17); fill-rule: nonzero; opacity: 1;" transform=" matrix(1 0 0 1 0 0) " stroke-linecap="round"/>
	<path d="M 13.273 30.689 l 0.021 -0.042 c -5.635 0.02 -10.191 4.595 -10.188 10.23 c 0 2.188 0 6.862 0 8.919 c 0 0 0 0 0 0.031 v 9.386 C 3.08 59.435 3.24 59.635 3.461 59.66 c 0.222 0.025 0.422 -0.134 0.447 -0.355 c 0.003 -0.031 0.003 -0.061 0 -0.092 v -8.032 c 1.527 0 7.156 -0.026 9.338 0 c 5.659 0.007 10.252 -4.574 10.259 -10.233 S 18.932 30.696 13.273 30.689 z M 13.247 50.363 c -2.182 0 -7.786 0 -9.333 0 c 0 -1.542 -0.031 -7.035 -0.026 -9.443 c 0.038 -5.178 4.265 -9.344 9.443 -9.307 c 5.178 0.038 9.344 4.265 9.307 9.443 C 22.6 46.213 18.404 50.371 13.247 50.363 z" style="stroke: none; stroke-width: 1; stroke-dasharray: none; stroke-linecap: butt; stroke-linejoin: miter; stroke-miterlimit: 10; fill: rgb(219,0,17); fill-rule: nonzero; opacity: 1;" transform=" matrix(1 0 0 1 0 0) " stroke-linecap="round"/>
	<path d="M 13.43 27.227 l -0.031 -0.016 C 6.01 27.214 0.017 33.195 0 40.584 c 0 3.73 0.037 12.943 0.042 13.032 v 5.545 c 0 0.939 0.619 3.62 3.405 3.625 c 1.942 0.084 3.585 -1.422 3.669 -3.365 c 0.002 -0.036 0.003 -0.072 0.003 -0.108 c 0 -0.656 0.047 -4.145 0.063 -5.304 h 6.212 c 7.396 -0.136 13.281 -6.242 13.145 -13.638 C 26.407 33.181 20.62 27.378 13.43 27.227 z M 13.42 53.175 c -0.012 0 -0.024 0 -0.037 0 l 0.01 0.016 H 6.873 c -0.037 -0.005 -0.074 -0.005 -0.11 0 l -0.094 0.026 c -0.171 0.053 -0.287 0.21 -0.289 0.388 c 0 0.199 -0.068 4.9 -0.068 5.692 c 0 0.026 -0.126 2.66 -2.844 2.655 c -2.487 0 -2.597 -2.775 -2.597 -2.802 v -5.535 c 0 -0.094 -0.042 -9.302 -0.042 -13.032 c 0 -6.954 5.637 -12.591 12.591 -12.591 s 12.591 5.637 12.591 12.591 C 26.011 47.538 20.374 53.175 13.42 53.175 z" style="stroke: none; stroke-width: 1; stroke-dasharray: none; stroke-linecap: butt; stroke-linejoin: miter; stroke-miterlimit: 10; fill: rgb(219,0,17); fill-rule: nonzero; opacity: 1;" transform=" matrix(1 0 0 1 0 0) " stroke-linecap="round"/>
</g>
</svg>